<svg height="64px" width="64px" xmlns="http://www.w3.org/2000/svg" aria-label="CSS3" role="img" viewBox="-153.6 -153.6 819.20 819.20" fill="#000000" data-astro-cid-nrcdhfnm=""><g id="SVGRepo_bgCarrier" stroke-width="0" data-astro-cid-nrcdhfnm=""><rect x="-153.6" y="-153.6" width="819.20" height="819.20" rx="409.6" fill="none" stroke-width="0" data-astro-cid-nrcdhfnm=""></rect></g><g id="SVGRepo_tracerCarrier" stroke-linecap="round" stroke-linejoin="round" data-astro-cid-nrcdhfnm=""></g><g id="SVGRepo_iconCarrier" data-astro-cid-nrcdhfnm=""><path fill="#264de4" d="M72 460L30 0h451l-41 460-184 52" data-astro-cid-nrcdhfnm=""></path><path fill="#2965f1" d="M256 37V472l149-41 35-394" data-astro-cid-nrcdhfnm=""></path><path fill="#ebebeb" d="m114 94h142v56H119m5 58h132v57H129m3 28h56l4 45 64 17v59L139 382" data-astro-cid-nrcdhfnm=""></path><path fill="#ffffff" d="m256 208v57h69l-7 73-62 17v59l115-32 26-288H256v56h80l-5.5 58Z" data-astro-cid-nrcdhfnm=""></path></g></svg>