<svg height="64px" width="64px" xmlns="http://www.w3.org/2000/svg" aria-label="HTML5" role="img" viewBox="-153.6 -153.6 819.20 819.20" fill="#000000" data-astro-cid-nrcdhfnm=""><g id="SVGRepo_bgCarrier" stroke-width="0" data-astro-cid-nrcdhfnm=""><rect x="-153.6" y="-153.6" width="819.20" height="819.20" rx="409.6" fill="none" stroke-width="0" data-astro-cid-nrcdhfnm=""></rect></g><g id="SVGRepo_tracerCarrier" stroke-linecap="round" stroke-linejoin="round" data-astro-cid-nrcdhfnm=""></g><g id="SVGRepo_iconCarrier" data-astro-cid-nrcdhfnm=""><path fill="#e34f26" d="M71 460L30 0h451l-41 460-185 52" data-astro-cid-nrcdhfnm=""></path><path fill="#ef652a" d="M256 472l149-41 35-394H256" data-astro-cid-nrcdhfnm=""></path><path fill="#ebebeb" d="M256 208h-75l-5-58h80V94H114l15 171h127zm-1 147l-63-17-4-45h-56l7 89 116 32z" data-astro-cid-nrcdhfnm=""></path><path fill="#ffffff" d="M255 208v57h70l-7 73-63 17v59l116-32 16-174zm0-114v56h137l5-56z" data-astro-cid-nrcdhfnm=""></path></g></svg>