<svg xmlns="http://www.w3.org/2000/svg" aria-label="JavaScript" role="img" viewBox="-153.6 -153.6 819.20 819.20" width="64px" height="64px" fill="#000000" data-astro-cid-nrcdhfnm=""><g id="SVGRepo_bgCarrier" stroke-width="0" data-astro-cid-nrcdhfnm=""><rect x="-153.6" y="-153.6" width="819.20" height="819.20" rx="409.6" fill="none" stroke-width="0" data-astro-cid-nrcdhfnm=""></rect></g><g id="SVGRepo_tracerCarrier" stroke-linecap="round" stroke-linejoin="round" data-astro-cid-nrcdhfnm=""></g><g id="SVGRepo_iconCarrier" data-astro-cid-nrcdhfnm=""><rect width="512" height="512" rx="15%" fill="#f7df1e" data-astro-cid-nrcdhfnm=""></rect><path d="M324 370c10 17 24 29 47 29c20 0 33-10 33 -24c0-16 -13 -22 -35 -32l-12-5c-35-15 -58 -33 -58 -72c0-36 27 -64 70 -64c31 0 53 11 68 39l-37 24c-8-15 -17 -21 -31 -21c-14 0-23 9 -23 21c0 14 9 20 30 29l12 5c41 18 64 35 64 76c0 43-34 67 -80 67c-45 0-74 -21 -88 -49zm-170 4c8 13 14 25 31 25c16 0 26-6 26 -30V203h48v164c0 50-29 72 -72 72c-39 0-61 -20 -72 -44z" data-astro-cid-nrcdhfnm=""></path></g></svg>